<svg width="96" height="96" viewBox="0 0 96 96" fill="none" xmlns="http://www.w3.org/2000/svg" role="img" aria-labelledby="title desc">
  <title id="title">Interviu mark</title>
  <desc id="desc">A folded interview card with a trace path and verification point.</desc>
  <rect x="10" y="10" width="76" height="76" rx="20" fill="#123F38"/>
  <path d="M16 69.5L69.5 16H73.5C77.1 16 80 18.9 80 22.5V76H22.5C18.9 76 16 73.1 16 69.5Z" fill="#D7A94E"/>
  <path d="M24 67L67 24" stroke="#F8FAF6" stroke-width="4.5" stroke-linecap="round"/>
  <path d="M32 28H59C62.3 28 65 30.7 65 34V58C65 61.3 62.3 64 59 64H32C28.7 64 26 61.3 26 58V34C26 30.7 28.7 28 32 28Z" fill="#F8FAF6" stroke="#123F38" stroke-width="3"/>
  <path d="M37 43H50.5C55.5 43 59 46.4 59 51.2C59 56.1 55.5 59.5 50.5 59.5H44" stroke="#176B5F" stroke-width="4" stroke-linecap="round"/>
  <path d="M36 52L41.3 57.4L52.5 46" stroke="#176B5F" stroke-width="4.5" stroke-linecap="round" stroke-linejoin="round"/>
  <circle cx="67" cy="29" r="5.5" fill="#176B5F" stroke="#F8FAF6" stroke-width="3"/>
</svg>
